<svg width="48" height="48" viewBox="0 0 48 48" fill="none" xmlns="http://www.w3.org/2000/svg" id="svg145616061_941">
<path d="M23.9115 1.71436L43.6258 12.8572M23.9115 1.71436L4.19727 12.8572M23.9115 1.71436V46.2858M23.9115 1.71436L30.483 12.8572M23.9115 1.71436L17.3401 12.8572M43.6258 12.8572V35.1429M43.6258 12.8572L4.19727 35.1429M43.6258 12.8572H30.483M43.6258 12.8572L37.0544 24.0001M43.6258 35.1429L23.9115 46.2858M43.6258 35.1429L4.19727 12.8572M43.6258 35.1429L37.0544 24.0001M43.6258 35.1429H30.483M23.9115 46.2858L4.19727 35.1429M23.9115 46.2858L30.483 35.1429M23.9115 46.2858L17.3401 35.1429M4.19727 35.1429V12.8572M4.19727 35.1429H17.3401M4.19727 35.1429L10.7687 24.0001M4.19727 12.8572L10.7687 24.0001M4.19727 12.8572H17.3401M30.483 12.8572L37.0544 24.0001M30.483 12.8572H17.3401M37.0544 24.0001L30.483 35.1429M30.483 35.1429H17.3401M17.3401 35.1429L10.7687 24.0001M10.7687 24.0001L17.3401 12.8572" stroke="#525252" stroke-linejoin="round"/>
</svg>