<svg width="48" height="48" viewBox="0 0 48 48" fill="none" xmlns="http://www.w3.org/2000/svg" id="svg-1769895653_2006">
<path d="M8.67345 23.9999C5.77632 23.9999 3.42773 19.3948 3.42773 13.7142C3.42773 8.03354 5.77632 3.42847 8.67345 3.42847H18.7534M8.67345 23.9999H18.7534M8.67345 23.9999H13.7134M23.9992 13.7142C23.9992 19.3948 21.6506 23.9999 18.7534 23.9999M23.9992 13.7142C23.9992 8.03354 21.6506 3.42847 18.7534 3.42847M23.9992 13.7142V8.67418M23.9992 13.7142V18.7542M18.7534 23.9999C15.8563 23.9999 13.5077 19.3948 13.5077 13.7142C13.5077 8.03354 15.8563 3.42847 18.7534 3.42847M18.7534 23.9999H13.7134M23.9992 39.3256C23.9992 42.2227 19.3941 44.5713 13.7134 44.5713C8.03281 44.5713 3.42773 42.2227 3.42773 39.3256L3.42773 29.2456M23.9992 39.3256V29.2456M23.9992 39.3256L23.9992 34.2856M13.7134 23.9999C19.3941 23.9999 23.9992 26.3485 23.9992 29.2456M13.7134 23.9999C8.03281 23.9999 3.42773 26.3485 3.42773 29.2456M23.9992 29.2456C23.9992 32.1427 19.3941 34.4913 13.7134 34.4913C8.03281 34.4913 3.42773 32.1427 3.42773 29.2456M23.9992 29.2456L23.9992 34.2856M23.9992 8.67418C23.9992 5.77705 28.6042 3.42847 34.2849 3.42847C39.9655 3.42847 44.5706 5.77705 44.5706 8.67418V18.7542M23.9992 8.67418V18.7542M23.9992 18.7542C23.9992 15.8571 28.6042 13.5085 34.2849 13.5085C39.9655 13.5085 44.5706 15.8571 44.5706 18.7542M23.9992 18.7542C23.9992 21.6504 28.6015 23.9985 34.2798 23.9999M44.5706 18.7542C44.5706 21.6504 39.9683 23.9985 34.29 23.9999M23.9992 34.2856C23.9992 28.605 26.3478 23.9999 29.2449 23.9999M23.9992 34.2856C23.9992 39.9662 26.3477 44.5713 29.2449 44.5713M29.2449 23.9999C32.142 23.9999 34.4906 28.605 34.4906 34.2856C34.4906 39.9663 32.142 44.5713 29.2449 44.5713M29.2449 23.9999H34.2798M29.2449 44.5713L39.3249 44.5713C42.222 44.5713 44.5706 39.9663 44.5706 34.2856C44.5706 28.605 42.222 23.9999 39.3249 23.9999H34.29M34.29 23.9999L34.2798 23.9999M34.29 23.9999C34.2883 23.9999 34.2866 23.9999 34.2849 23.9999C34.2832 23.9999 34.2815 23.9999 34.2798 23.9999" stroke="#525252" stroke-linejoin="round"/>
</svg>