<svg xmlns="http://www.w3.org/2000/svg" viewBox="0 0 256 256" focusable="false" color="var(--token-06953b5a-453f-457c-b76d-01fb16b803ec, rgb(133, 133, 133)) /* {&quot;name&quot;:&quot;Dark [400]&quot;} */" style="user-select: none; width: 100%; height: 100%; display: inline-block; fill: var(--token-06953b5a-453f-457c-b76d-01fb16b803ec, rgb(133, 133, 133)); color: var(--token-06953b5a-453f-457c-b76d-01fb16b803ec, rgb(133, 133, 133)); flex-shrink: 0;"><g color="var(--token-06953b5a-453f-457c-b76d-01fb16b803ec, rgb(133, 133, 133)) /* {&quot;name&quot;:&quot;Dark [400]&quot;} */" weight="regular"><path d="M208,32H184V24a8,8,0,0,0-16,0v8H88V24a8,8,0,0,0-16,0v8H48A16,16,0,0,0,32,48V208a16,16,0,0,0,16,16H208a16,16,0,0,0,16-16V48A16,16,0,0,0,208,32ZM72,48v8a8,8,0,0,0,16,0V48h80v8a8,8,0,0,0,16,0V48h24V80H48V48ZM208,208H48V96H208V208Z"/></g></svg>