<svg width="48" height="48" viewBox="0 0 48 48" fill="none" xmlns="http://www.w3.org/2000/svg" id="svg-1334270700_749">
<path d="M24 24.0001L12 17.143M24 24.0001L36 17.143M24 24.0001L24 30.8572M24 10.2858L18 6.85725M24 10.2858L30 6.85725M24 10.2858L24 17.143M12 17.143L18 13.7144M12 17.143L12 24.0001M18 6.85725L24 3.42868L30 6.85725M18 6.85725L18 13.7144M18 13.7144L24 17.143M12 24.0001L6 27.4287M12 24.0001L18 27.4287L24 30.8572M6 27.4287L6 34.2858L24 44.5715M6 27.4287L12 30.8572L24 37.7144M24 17.143L30 13.7144M24 44.5715L42 34.2858L42 27.4287M24 44.5715L24 37.7144M42 27.4287L36 30.8572L30 34.2858L24 37.7144M42 27.4287L36 24.0001M30 6.85725L30 13.7144M30 13.7144L36 17.143M36 17.143L36 24.0001M24 30.8572L36 24.0001" stroke="#525252" stroke-linejoin="round"/>
</svg>