<svg xmlns="http://www.w3.org/2000/svg" viewBox="0 0 256 256" focusable="false" color="var(--token-06953b5a-453f-457c-b76d-01fb16b803ec, rgb(133, 133, 133)) /* {&quot;name&quot;:&quot;Dark [400]&quot;} */" style="user-select: none; width: 100%; height: 100%; display: inline-block; fill: var(--token-06953b5a-453f-457c-b76d-01fb16b803ec, rgb(133, 133, 133)); color: var(--token-06953b5a-453f-457c-b76d-01fb16b803ec, rgb(133, 133, 133)); flex-shrink: 0;"><g color="var(--token-06953b5a-453f-457c-b76d-01fb16b803ec, rgb(133, 133, 133)) /* {&quot;name&quot;:&quot;Dark [400]&quot;} */" weight="regular"><path d="M160,80a8,8,0,0,1,8-8h64a8,8,0,0,1,0,16H168A8,8,0,0,1,160,80Zm-24,78a42,42,0,0,1-42,42H32a8,8,0,0,1-8-8V64a8,8,0,0,1,8-8H90a38,38,0,0,1,25.65,66A42,42,0,0,1,136,158ZM40,116H90a22,22,0,0,0,0-44H40Zm80,42a26,26,0,0,0-26-26H40v52H94A26,26,0,0,0,120,158Zm128-6a8,8,0,0,1-8,8H169a32,32,0,0,0,56.59,11.2,8,8,0,0,1,12.8,9.61A48,48,0,1,1,248,152Zm-17-8a32,32,0,0,0-62,0Z"/></g></svg>