<svg xmlns="http://www.w3.org/2000/svg" viewBox="0 0 256 256" focusable="false" color="var(--token-79bed57b-21d2-417f-ada4-4eec29b38339, rgb(82, 82, 82)) /* {&quot;name&quot;:&quot;Dark [500]&quot;} */" style="user-select: none; width: 100%; height: 100%; display: inline-block; fill: var(--token-79bed57b-21d2-417f-ada4-4eec29b38339, rgb(82, 82, 82)); color: var(--token-79bed57b-21d2-417f-ada4-4eec29b38339, rgb(82, 82, 82)); flex-shrink: 0;"><g color="var(--token-79bed57b-21d2-417f-ada4-4eec29b38339, rgb(82, 82, 82)) /* {&quot;name&quot;:&quot;Dark [500]&quot;} */" weight="regular"><path d="M184,112a8,8,0,0,1-8,8H112a8,8,0,0,1,0-16h64A8,8,0,0,1,184,112Zm-8,24H112a8,8,0,0,0,0,16h64a8,8,0,0,0,0-16Zm48-88V208a16,16,0,0,1-16,16H48a16,16,0,0,1-16-16V48A16,16,0,0,1,48,32H208A16,16,0,0,1,224,48ZM48,208H72V48H48Zm160,0V48H88V208H208Z"/></g></svg>