<svg xmlns="http://www.w3.org/2000/svg" viewBox="0 0 256 256" focusable="false" color="var(--token-06953b5a-453f-457c-b76d-01fb16b803ec, rgb(133, 133, 133)) /* {&quot;name&quot;:&quot;Dark [400]&quot;} */" style="user-select: none; width: 100%; height: 100%; display: inline-block; fill: var(--token-06953b5a-453f-457c-b76d-01fb16b803ec, rgb(133, 133, 133)); color: var(--token-06953b5a-453f-457c-b76d-01fb16b803ec, rgb(133, 133, 133)); flex-shrink: 0;"><g color="var(--token-06953b5a-453f-457c-b76d-01fb16b803ec, rgb(133, 133, 133)) /* {&quot;name&quot;:&quot;Dark [400]&quot;} */" weight="regular"><path d="M216,96A88,88,0,1,0,72,163.83V240a8,8,0,0,0,11.58,7.16L128,225l44.43,22.21A8.07,8.07,0,0,0,176,248a8,8,0,0,0,8-8V163.83A87.85,87.85,0,0,0,216,96ZM56,96a72,72,0,1,1,72,72A72.08,72.08,0,0,1,56,96ZM168,227.06l-36.43-18.21a8,8,0,0,0-7.16,0L88,227.06V174.37a87.89,87.89,0,0,0,80,0ZM128,152A56,56,0,1,0,72,96,56.06,56.06,0,0,0,128,152Zm0-96A40,40,0,1,1,88,96,40,40,0,0,1,128,56Z"/></g></svg>