<svg width="48" height="48" viewBox="0 0 48 48" fill="none" xmlns="http://www.w3.org/2000/svg" id="svg119861732_2676">
<path d="M20.5924 20.5932C20.5924 20.5932 19.3015 12.4888 16.699 9.8863C14.8175 8.00481 11.3345 7.57221 9.45297 9.4537C7.57148 11.3352 8.00408 14.8183 9.88557 16.6998C12.4881 19.3022 20.5924 20.5932 20.5924 20.5932ZM20.5924 20.5932C20.5924 20.5932 21.6009 20.705 22.663 20.7742C23.3652 19.9742 23.9992 19.1821 23.9992 19.1821M20.5924 20.5932C20.5924 20.5932 20.7064 21.6202 20.7753 22.693C19.8021 23.5759 19.1813 23.9999 19.1813 23.9999M20.5924 27.4066C20.5924 27.4066 12.4881 28.6975 9.88557 31.3C8.00408 33.1815 7.57148 36.6646 9.45297 38.5461C11.3345 40.4276 14.8175 39.995 16.699 38.1135C19.3015 35.511 20.5924 27.4066 20.5924 27.4066ZM20.5924 27.4066C21.099 27.3446 21.854 27.2737 22.7095 27.2274C23.2087 27.7657 23.6611 28.31 23.9992 28.8177M20.5924 27.4066C20.5924 27.4066 20.7312 26.6701 20.7952 25.3613C20.1614 24.793 19.5813 24.3126 19.1813 23.9999M27.4059 20.5932C27.4059 20.5932 35.5103 19.3022 38.1128 16.6998C39.9942 14.8183 40.4268 11.3352 38.5454 9.4537C36.6639 7.57222 33.1808 8.00482 31.2993 9.8863C28.6968 12.4888 27.4059 20.5932 27.4059 20.5932ZM27.4059 20.5932C27.4059 20.5932 26.3988 20.7088 25.3383 20.7776C24.635 19.9765 23.9992 19.1821 23.9992 19.1821M27.4059 20.5932C27.3223 21.0782 27.227 21.7957 27.1626 22.6138C27.9815 23.3365 28.817 23.9999 28.817 23.9999M27.4059 27.4066C27.4059 27.4066 28.6968 35.511 31.2993 38.1135C33.1808 39.995 36.6639 40.4276 38.5454 38.5461C40.4268 36.6646 39.9942 33.1815 38.1128 31.3C35.5103 28.6975 27.4059 27.4066 27.4059 27.4066ZM27.4059 27.4066C27.2387 26.7965 27.1483 26.0849 27.11 25.3479C27.7747 24.7739 28.3922 24.2998 28.817 23.9999M27.4059 27.4066C26.7655 27.2781 26.0028 27.2127 25.2133 27.1888C24.7324 27.7258 24.3055 28.2802 23.9992 28.8177M23.9992 19.1821C23.9992 19.1821 28.817 12.5386 28.817 8.8581C28.817 6.19728 26.66 3.42847 23.9992 3.42847C21.3383 3.42847 19.1813 6.19728 19.1813 8.8581C19.1813 12.5386 23.9992 19.1821 23.9992 19.1821ZM19.1813 23.9999C19.1813 23.9999 12.5378 19.1821 8.85737 19.1821C6.19655 19.1821 3.42773 21.3391 3.42773 23.9999C3.42773 26.6607 6.19654 28.8177 8.85737 28.8177C12.5378 28.8177 19.1813 23.9999 19.1813 23.9999ZM28.817 23.9999C28.817 23.9999 35.4605 28.8177 39.141 28.8177C41.8018 28.8177 44.5706 26.6607 44.5706 23.9999C44.5706 21.3391 41.8018 19.1821 39.141 19.1821C35.4605 19.1821 28.817 23.9999 28.817 23.9999ZM23.9992 28.8177C23.9992 28.8177 19.1813 35.4612 19.1813 39.1417C19.1813 41.8025 21.3383 44.5713 23.9992 44.5713C26.66 44.5713 28.817 41.8025 28.817 39.1417C28.817 35.4612 23.9992 28.8177 23.9992 28.8177Z" stroke="#525252" stroke-linejoin="round"/>
</svg>