<svg width="48" height="48" viewBox="0 0 48 48" fill="none" xmlns="http://www.w3.org/2000/svg" id="svg-2109905112_2297">
<path d="M18.0772 34.1674C16.2962 33.1278 14.8131 31.6338 13.7868 29.8442M18.0772 34.1674L13.6729 41.7958M18.0772 34.1674C19.8077 35.1775 21.8194 35.7584 23.9663 35.7643C23.9773 35.7643 23.9883 35.7643 23.9992 35.7643C26.1381 35.7643 28.1437 35.1935 29.872 34.1959M13.7868 29.8442L6.15845 34.2485M13.7868 29.8442C12.7993 28.1224 12.2346 26.1271 12.2346 23.9999C12.2346 23.989 12.2347 23.978 12.2347 23.9671C12.2405 21.8319 12.8154 19.8304 13.8153 18.1062M6.15845 34.2485C7.95803 37.3745 10.5556 39.9829 13.6729 41.7958M6.15845 34.2485C4.4214 31.2311 3.42773 27.7316 3.42773 23.9999C3.42773 20.248 4.4324 16.7305 6.18705 13.702M13.6729 41.7958C14.0113 41.9925 14.3558 42.1798 14.706 42.3575C16.1016 43.0654 17.5889 43.6189 19.1453 43.9954C19.9235 44.1836 20.719 44.3276 21.5289 44.4245C22.3388 44.5215 23.1632 44.5713 23.9992 44.5713C27.7425 44.5713 31.2522 43.5715 34.276 41.8244M29.872 34.1959L34.276 41.8244M29.872 34.1959C31.6653 33.1607 33.16 31.6659 34.1951 29.8725M34.276 41.8244C37.4056 40.0161 40.0145 37.4071 41.8229 34.2776M34.1951 29.8725L41.8229 34.2776M34.1951 29.8725C35.1927 28.1442 35.7637 26.1387 35.7637 23.9998C35.7637 23.9888 35.7637 23.9779 35.7636 23.9669C35.7578 21.82 35.1768 19.8083 34.1667 18.0777M41.8229 34.2776C43.5704 31.2536 44.5706 27.7435 44.5706 23.9998C44.5706 23.7554 44.5663 23.512 44.5579 23.2697C44.5574 23.2564 44.5569 23.2431 44.5564 23.2298C44.5399 22.7807 44.509 22.3353 44.4641 21.894C44.3482 20.7537 44.1391 19.6409 43.8446 18.5633C43.3713 16.8316 42.6774 15.1909 41.795 13.6735M34.1667 18.0777L41.795 13.6735M34.1667 18.0777C33.1271 16.2968 31.6332 14.8139 29.8436 13.7876M41.795 13.6735C39.9822 10.5561 37.3738 7.9588 34.2478 6.1592M29.8436 13.7876L34.2478 6.1592M29.8436 13.7876C28.1218 12.8001 26.1266 12.2354 23.9994 12.2354L23.9778 12.2355L23.9665 12.2355C21.8313 12.2413 19.8299 12.816 18.1058 13.8159M34.2478 6.1592C31.2305 4.42214 27.731 3.42847 23.9994 3.42847C20.2474 3.42847 16.7301 4.43292 13.7016 6.18759M18.1058 13.8159L13.7016 6.18759M18.1058 13.8159C16.3286 14.8466 14.846 16.3291 13.8153 18.1062M13.7016 6.18759C10.588 7.99156 7.991 10.5884 6.18705 13.702M13.8153 18.1062L6.18705 13.702" stroke="#525252" stroke-linejoin="round"/>
</svg>