<svg width="48" height="48" viewBox="0 0 48 48" fill="none" xmlns="http://www.w3.org/2000/svg" id="svg1117224194_892">
<path d="M33.1037 23.9999C33.1037 35.3612 29.0277 44.5713 23.9997 44.5713C18.9717 44.5713 14.8957 35.3612 14.8957 23.9999C14.8957 12.6386 18.9717 3.42847 23.9997 3.42847C29.0277 3.42847 33.1037 12.6386 33.1037 23.9999Z" stroke="#525252" strokeLinejoin="round"/>
<path d="M28.5517 31.6775C18.4477 37.3582 8.21883 38.5259 5.70483 34.2856C3.19083 30.0454 9.34373 22.0029 19.4477 16.3223C29.5517 10.6416 39.7806 9.47394 42.2946 13.7142C44.8086 17.9544 38.6557 25.9969 28.5517 31.6775Z" stroke="#525252" strokeLinejoin="round"/>
<path d="M28.5517 16.3222C38.6557 22.0029 44.8086 30.0454 42.2946 34.2856C39.7806 38.5259 29.5517 37.3582 19.4477 31.6775C9.34372 25.9969 3.19082 17.9544 5.70482 13.7142C8.21882 9.47393 18.4477 10.6416 28.5517 16.3222Z" stroke="#525252" strokeLinejoin="round"/>
</svg>