<svg width="48" height="48" viewBox="0 0 48 48" fill="none" xmlns="http://www.w3.org/2000/svg" id="svg-1735897620_751">
<path d="M44.5723 44.5715C37.8503 44.5715 32.193 32.806 32.193 18.2924C32.193 10.0834 34.6149 3.42868 37.6024 3.42868C40.59 3.42868 43.0119 10.0834 43.0119 18.2924C43.0119 32.806 37.5626 44.5715 30.8406 44.5715C24.1187 44.5715 18.4614 32.806 18.4614 18.2924C18.4614 10.0834 20.8833 3.42868 23.8708 3.42868C26.8584 3.42868 29.2802 10.0834 29.2802 18.2924C29.2802 32.806 23.831 44.5715 17.109 44.5715C10.387 44.5715 4.72976 32.806 4.72976 18.2924M4.78177 18.2924C4.78177 10.0834 7.20365 3.42868 10.1912 3.42868C13.1787 3.42868 15.6006 10.0834 15.6006 18.2924C15.6006 32.806 10.1514 44.5715 3.42941 44.5715" stroke="#525252" stroke-linejoin="round"/>
</svg>