<svg width="48" height="48" viewBox="0 0 48 48" fill="none" xmlns="http://www.w3.org/2000/svg" id="svg387529522_1198">
<path d="M31.275 7.25284L23.9575 3.42847L16.6399 7.25284M31.275 7.25284L23.9575 11.0772M31.275 7.25284V11.8526M16.6399 7.25284L23.9575 11.0772M16.6399 7.25284V11.8084M23.9575 11.0772V16.2783M19.7777 13.4483L12.4601 17.2727M19.7777 13.4483L16.6399 11.8084M19.7777 13.4483V18.4628M12.4601 37.9169L5.14258 34.0926V13.4483M12.4601 37.9169V17.2727M12.4601 37.9169L16.6399 35.7324M5.14258 13.4483L12.4601 9.62394L16.6399 11.8084M5.14258 13.4483L12.4601 17.2727M42.8569 13.4483L35.5393 9.62394L31.275 11.8526M42.8569 13.4483V34.0926L35.5393 37.9169M42.8569 13.4483L35.5393 17.2727M35.5393 37.9169V17.2727M35.5393 37.9169L31.275 35.6883M28.2218 13.4483L35.5393 17.2727M28.2218 13.4483L31.275 11.8526M28.2218 13.4483V18.507M23.9575 16.2783L28.2218 18.507M23.9575 16.2783L19.7777 18.4628M31.275 20.1027L23.9575 23.9271M31.275 20.1027V35.6883M31.275 20.1027L28.2218 18.507M23.9575 44.5713L31.275 40.747V35.6883M23.9575 44.5713L16.6399 40.747V35.7324M23.9575 44.5713V23.9271M16.6399 20.1027L23.9575 23.9271M16.6399 20.1027V35.7324M16.6399 20.1027L19.7777 18.4628" stroke="#525252" strokeLinejoin="round"/>
</svg>