<svg width="66" height="34" viewBox="-1 -1 66 34" fill="none" xmlns="http://www.w3.org/2000/svg" id="svg-80886797_1140">
<path d="M0 25.0741C3.56557 21.24 7.36971 17.7615 10.9668 13.9677C13.316 11.4901 15.641 8.97592 17.9625 6.45878C19.4715 4.82264 21.3074 3.21501 22.5108 1.19111C22.6781 0.909846 23.2454 -0.0878833 22.5224 0.00623839C20.0635 0.326308 17.1625 3.85463 15.4228 5.6879C10.077 11.3214 5.75569 18.7515 2.13564 26.1448C1.98008 26.4624 -1.19358 32.7459 0.692641 31.9263C2.62438 31.087 4.42896 29.1681 6.11833 27.815C9.37549 25.2062 12.6627 22.6731 16.0115 20.249C17.2468 19.3548 18.4224 18.3366 19.6595 17.4509C20.9232 16.5462 19.2551 18.7216 19.1631 18.85C17.514 21.1477 15.7672 23.3371 14.153 25.6737C13.4078 26.7522 10.6848 30.0126 10.9553 31.7408C11.1994 33.3008 23.3696 25.7685 24.2309 25.2882C24.7417 25.0034 33.3812 19.6141 33.1082 22.6187C32.9533 24.3242 29.5995 29.6021 32.3232 30.0563C36.5558 30.762 41.039 26.9027 44.8139 25.0455C46.2498 24.3391 43.8713 27.7242 43.8557 28.6144C43.8044 31.5327 53.0617 29.0302 54.303 28.8428C57.5733 28.3492 60.7264 29.282 64 28.4146" stroke="#525252" stroke-linecap="round" strokeLinejoin="round"/>
</svg>