<svg width="48" height="48" viewBox="0 0 48 48" fill="none" xmlns="http://www.w3.org/2000/svg" id="svg1102395268_740">
<path d="M23.9992 0.857178C23.9992 0.857178 23.2589 12.8944 28.7499 15.9831C34.241 19.0718 44.5706 12.4286 44.5706 12.4286C44.5706 12.4286 33.5007 17.8226 33.5007 24C33.5007 30.1775 44.5706 35.5715 44.5706 35.5715C44.5706 35.5715 34.241 28.9282 28.7499 32.017C23.2589 35.1057 23.9992 47.1429 23.9992 47.1429C23.9992 47.1429 24.7394 35.1057 19.2484 32.017C13.7574 28.9282 3.42773 35.5715 3.42773 35.5715C3.42773 35.5715 14.4976 30.1775 14.4976 24C14.4976 17.8226 3.42773 12.4286 3.42773 12.4286C3.42773 12.4286 13.7574 19.0718 19.2484 15.9831C24.7394 12.8944 23.9992 0.857178 23.9992 0.857178Z" stroke="#525252" strokeLinejoin="round"/>
</svg>