<svg width="48" height="48" viewBox="0 0 48 48" fill="none" xmlns="http://www.w3.org/2000/svg" id="svg2033858669_894">
<path d="M44.5706 23.9999C44.5706 35.3612 35.3604 44.5713 23.9992 44.5713M44.5706 23.9999C44.5706 12.6386 35.3604 3.42847 23.9992 3.42847M44.5706 23.9999H3.42773M44.5706 23.9999C44.5706 29.6805 35.3604 34.2856 23.9992 34.2856C12.6379 34.2856 3.42773 29.6805 3.42773 23.9999M44.5706 23.9999C44.5706 18.3193 35.3604 13.7142 23.9992 13.7142C12.6379 13.7142 3.42773 18.3193 3.42773 23.9999M23.9992 44.5713C12.6379 44.5713 3.42773 35.3612 3.42773 23.9999M23.9992 44.5713V3.42847M3.42773 23.9999C3.42773 12.6386 12.6379 3.42847 23.9992 3.42847M24.4667 44.5713C18.5278 44.5713 13.7135 35.3612 13.7135 23.9999C13.7135 12.6386 18.5278 3.42847 24.4667 3.42847C30.4056 3.42847 35.2199 12.6386 35.2199 23.9999C35.2199 35.3612 30.4056 44.5713 24.4667 44.5713Z" stroke="#525252" strokeLinejoin="round"/>
</svg>